<svg id="Twitter_Logo_Blue" xmlns="http://www.w3.org/2000/svg" width="36" height="36" viewBox="0 0 36 36">
  <rect id="長方形_17" data-name="長方形 17" width="36" height="36" fill="none"/>
  <path id="パス_5" data-name="パス 5" d="M81.958,116.241A12.757,12.757,0,0,0,94.874,103.46c0-.194,0-.388-.013-.581a9.183,9.183,0,0,0,2.265-2.325,9.135,9.135,0,0,1-2.607.707,4.516,4.516,0,0,0,2-2.485,9.156,9.156,0,0,1-2.882,1.09,4.578,4.578,0,0,0-5.454-.884,4.48,4.48,0,0,0-2.282,4.981A12.933,12.933,0,0,1,76.54,99.27a4.467,4.467,0,0,0,1.405,6,4.542,4.542,0,0,1-2.06-.562v.057a4.506,4.506,0,0,0,3.642,4.4,4.578,4.578,0,0,1-2.05.077,4.539,4.539,0,0,0,4.241,3.119,9.17,9.17,0,0,1-5.637,1.927A9.337,9.337,0,0,1,75,114.223a12.95,12.95,0,0,0,6.958,2.014" transform="translate(-68.063 -89.344)" fill="#999"/>
</svg>
